<?xml version="1.0" encoding="UTF-8"?>
<svg width="279px" height="100px" viewBox="0 0 279 100" version="1.1" xmlns="http://www.w3.org/2000/svg" xmlns:xlink="http://www.w3.org/1999/xlink">
    <!-- Generator: Sketch 52.3 (67297) - http://www.bohemiancoding.com/sketch -->
    <title>logo</title>
    <desc>Created with Sketch.</desc>
    <defs>
        <linearGradient x1="50%" y1="0%" x2="50%" y2="100%" id="linearGradient-1">
            <stop stop-color="#F8F5FF" offset="0%"></stop>
            <stop stop-color="#DCCDFF" offset="100%"></stop>
        </linearGradient>
        <path d="M0.0860531216,0.0456728413 C4.79035578,4.7499755 9.93560717,2.9858865 11.9937273,0.0456728413 C7.14250711,1.51573067 0.0860531216,0.0456728413 0.0860531216,0.0456728413" id="path-2"></path>
    </defs>
    <g id="流量管理平台" stroke="none" stroke-width="1" fill="none" fill-rule="evenodd">
        <g id="-logo" transform="translate(-120.000000, -98.000000)">
            <g id="logo" transform="translate(120.000000, 98.000000)">
                <path d="M155.49588,14.986686 C154.826721,13.486686 154.111625,11.9249794 153.51588,10.486686 C152.920135,9.04839252 153.800232,7.96885268 154.504776,7.67633747 C155.20932,7.38382226 156.35405,7.23938225 157.244354,9.04839252 C157.687504,9.94882864 159.035878,12.6533388 159.39588,13.493343 C159.755882,14.3333472 159.695879,14.2066821 159.99588,14.986686 L188.74588,14.986686 C189.85588,14.986686 190.99588,16.2766812 190.99588,17.236686 C190.99588,18.1366905 189.825886,19.486686 188.74588,19.486686 L125.24588,19.486686 C124.225875,19.486686 122.99588,18.3766917 122.99588,17.236686 C122.99588,16.03668 124.225875,14.986686 125.24588,14.986686 L155.49588,14.986686 Z M168.99588,31.486686 C169.655883,30.28668 170.075877,29.4916918 170.61588,28.321686 C171.155883,27.1516801 172.843704,23.1693716 173.13588,22.561686 C173.428056,21.9540004 174.649518,21.1107378 175.738144,21.5628273 C176.641357,21.9569619 176.876007,22.9826729 176.729752,23.4734414 C176.467493,24.4029305 176.146927,25.9699471 173.49588,31.486686 L194.24588,31.486686 C194.845883,31.486686 196.49588,32.214974 196.49588,33.646686 C196.49588,35.0783979 195.157928,35.986686 194.24588,35.986686 L119.74588,35.986686 C119.157871,35.986686 117.5,35.236686 117.5,33.736686 C117.5,32.386686 119.205877,31.486686 119.74588,31.486686 L140.49588,31.486686 C139.535875,28.9066731 139.355591,27.6466806 138.057007,24.6085122 C137.72303,23.8271395 137.794525,22.2837579 138.937744,21.7616799 C140.080963,21.2396018 141.095505,21.9569619 141.561646,22.5631667 C142.027786,23.1693716 143.645882,27.5698659 144.11088,28.726686 C144.575878,29.883506 144.703094,30.4191222 144.99588,31.486686 L168.99588,31.486686 Z M138.99588,40.486686 L174.99588,40.486686 C183.280151,40.486686 189.99588,47.2024147 189.99588,55.486686 C189.99588,63.7709572 183.280151,70.486686 174.99588,70.486686 L138.99588,70.486686 C130.711609,70.486686 123.99588,63.7709572 123.99588,55.486686 C123.99588,47.2024147 130.711609,40.486686 138.99588,40.486686 Z M138.99588,44.986686 C133.19689,44.986686 128.49588,49.6876961 128.49588,55.486686 C128.49588,61.2856759 133.19689,65.986686 138.99588,65.986686 L174.99588,65.986686 C180.79487,65.986686 185.49588,61.2856759 185.49588,55.486686 C185.49588,49.6876961 180.79487,44.986686 174.99588,44.986686 L138.99588,44.986686 Z M136.74588,53.236686 L177.24588,53.236686 C177.660094,53.236686 177.99588,53.5724724 177.99588,53.986686 L177.99588,56.986686 C177.99588,57.4008995 177.660094,57.736686 177.24588,57.736686 L136.74588,57.736686 C136.331667,57.736686 135.99588,57.4008995 135.99588,56.986686 L135.99588,53.986686 C135.99588,53.5724724 136.331667,53.236686 136.74588,53.236686 Z M161.19588,80.986686 L195.849864,80.986686 C196.74588,80.986686 197.49588,82.1153847 197.49588,83.236686 C197.49588,84.3579873 196.74588,85.486686 195.849864,85.486686 L161.19588,85.486686 L161.19588,95.176686 C161.19588,96.0225747 160.029262,96.976686 158.805448,96.976686 C157.581635,96.976686 156.69588,96.0225747 156.69588,95.176686 L156.69588,85.486686 L121.204903,85.486686 C120.154431,85.486686 119.49588,84.1966908 119.49588,83.236686 C119.49588,82.2766812 120.648771,80.986686 121.204903,80.986686 L156.69588,80.986686 L156.69588,73.486686 L158.823456,73.486686 L161.19588,73.486686 L161.19588,80.986686 Z" id="章" fill="#EFE8FF"></path>
                <path d="M242.7,52.8394455 L260.25,52.8394455 C260.664214,52.8394455 261,53.1752319 261,53.5894455 L261,56.5894455 C261,57.0036591 260.664214,57.3394455 260.25,57.3394455 L242.7,57.3394455 L242.7,67.0894455 C242.7,67.5036591 242.364214,67.8394455 241.95,67.8394455 L238.95,67.8394455 C238.535786,67.8394455 238.2,67.5036591 238.2,67.0894455 L238.2,57.3394455 L219.75,57.3394455 C219.335786,57.3394455 219,57.0036591 219,56.5894455 L219,53.5894455 C219,53.1752319 219.335786,52.8394455 219.75,52.8394455 L238.2,52.8394455 L238.2,44.5894455 C238.2,44.1752319 238.535786,43.8394455 238.95,43.8394455 L241.95,43.8394455 C242.364214,43.8394455 242.7,44.1752319 242.7,44.5894455 L242.7,52.8394455 Z M235.89,16.1492673 L265.77,16.1492673 C267.570009,16.1492673 268.964995,16.1650869 269.955,16.829652 C270.945005,17.4942172 271.691162,18.2637142 271.691162,19.0865091 C271.691162,20.0358879 271.691162,20.544217 271.5,21.3391786 C271.259999,21.9720978 270.096404,24.0740815 268.116394,26.795634 C263.330116,33.0744426 260.782577,36.6427728 258.89035,35.1367478 C257.936657,34.3777022 258.270715,32.6698693 259.823547,30.775908 C261.37638,28.8819468 267.014374,22.2569803 267,21.3391786 C267,20.8961374 265.980011,20.8961374 263.7,20.8961374 L232.74,20.8961374 C229.765686,24.0607175 217.144226,34.7661655 212.31,37.3835997 C211.5,37.6128788 209.796936,37.6128788 209.119812,36.3447119 C208.605469,34.6610766 209.389064,33.3957402 210.738098,32.4569631 C215.079529,29.4358125 218.884827,26.6779281 223.818054,22.4669756 C228.438077,18.0998333 232.188173,14.0715635 234.828186,10.0841726 C235.848191,8.62845851 237.360061,6.6981596 239.311523,7.85183944 C240.822693,8.74522383 239.71637,10.6904725 239.311523,11.4023972 C238.906677,12.1143219 238.590013,13.0479633 235.89,16.1492673 Z M228,35.1994455 L252,35.1994455 C263.59798,35.1994455 273,44.6014657 273,56.1994455 C273,67.7974252 263.59798,77.1994455 252,77.1994455 L228,77.1994455 C216.40202,77.1994455 207,67.7974252 207,56.1994455 C207,44.6014657 216.40202,35.1994455 228,35.1994455 Z M227.5,39.6994455 C218.663444,39.6994455 211.5,46.8628895 211.5,55.6994455 L211.5,56.6994455 C211.5,65.5360015 218.663444,72.6994455 227.5,72.6994455 L252.5,72.6994455 C261.336556,72.6994455 268.5,65.5360015 268.5,56.6994455 L268.5,55.6994455 C268.5,46.8628895 261.336556,39.6994455 252.5,39.6994455 L227.5,39.6994455 Z M276.756958,83.1994455 C277.826227,83.1994455 279,83.949438 279,85.4494455 C279,86.949453 277.826227,87.6994455 276.756958,87.6994455 L203.441162,87.6994455 C202.315615,87.6994455 201,86.949453 201,85.4494455 C201,83.949438 202.259338,83.1994455 203.441162,83.1994455 L276.756958,83.1994455 Z" id="鱼" fill="#EFE8FF"></path>
                <g id="kraken">
                    <path d="M69.0759875,52.8485053 C68.4408801,52.8744781 70.1907576,52.5886798 70.2521121,52.5872096 C93.071773,52.0289425 84.8633049,63.0594237 90.2532882,69.1915417 C99.203499,78.6761051 104.269264,71.5305596 104.568294,66.6938449 C104.591228,66.3217975 104.102744,66.1674311 103.907998,66.4851808 C100.391483,72.2218269 93.3999118,68.7923454 94.3695286,62.2822013 C97.6503283,43.3005293 87.4600902,40.0839263 76.4345095,44.7881309 C67.3200333,48.9043713 60.1626286,42.3232677 67.5078212,34.9779771 C78.5676076,23.9181907 66.7753896,0.144398706 50.855072,0.0976477507 C34.968372,0.0510928158 25.5983828,21.6483681 32.7141331,33.958571 C40.6529746,45.033745 38.2515241,47.7385377 33.9882682,48.5034108 C24.2857297,49.9825836 21.8593845,45.599559 14.1030383,45.81724 C-0.0079094384,45.8712438 1.45597373,57.1036264 2.92387533,62.2593649 C2.9282858,62.2747525 2.93367637,62.2897481 2.94004704,62.3045477 C7.92348329,73.8674213 13.194286,73.4625404 11.1775262,82.3578653 C11.1680192,82.4001078 11.1511614,82.4414682 11.127835,82.4781241 C8.78009409,86.1698814 3.15772812,84.2728903 0.519778497,83.1085269 C0.170077428,82.9541605 -0.15453298,83.3678624 0.0791237871,83.6704205 C2.42872685,86.7112908 6.86399098,92.1385181 12.1705675,90.5143879 C12.184681,90.5099775 12.1989905,90.5048809 12.2126139,90.4991963 C22.1871312,86.3866804 21.2287857,82.9077036 16.8961384,70.9556307 C14.2025189,63.4357836 21.9628835,58.1439087 25.7847006,56.0611879 C26.9660198,55.4174557 28.2330981,54.9311281 29.5778006,54.8904538 L32.8835931,54.9239733 C34.3149368,55.0374694 34.8056748,56.5767225 33.741674,57.3720768 C27.2971969,62.1891895 15.7248162,72.6738508 26.0107125,79.6290601 C40.5313437,89.4478389 34.7575517,94.0628541 23.864481,93.4742037 C23.4570518,93.4521513 23.3249338,94.0127708 23.7000196,94.1732138 C49.2024209,105.076772 48.8422327,85.0602078 43.6635597,77.8815348 C43.6556209,77.8704597 43.646996,77.8597765 43.637979,77.8495835 C35.8684995,69.0795158 41.6409193,61.109213 45.8898657,58.0551112 C49.826061,55.2257473 48.2503479,59.0537391 48.3559051,60.6650299 C48.3668823,60.8319416 48.3512986,60.9996374 48.3222876,61.1643928 L46.8878075,73.1447907 C46.8865334,73.1553759 46.8856513,73.166157 46.8852592,73.1767421 C46.2656376,89.6555229 58.798324,105.352671 73.4942958,96.5350681 C86.8283152,88.5346761 78.6345487,82.590248 72.2786729,81.2249632 C71.892904,81.1421445 71.6677742,81.6504263 71.9913065,81.8762423 C75.355023,84.2237871 76.1582182,87.6961972 69.0841223,87.5675096 C61.7422621,87.4341174 55.4199059,63.3402235 65.0973537,61.4035382 C65.1089189,61.4012839 65.1208762,61.3993237 65.1325394,61.3978536 C71.7306969,60.5323238 75.0032637,68.1591983 78.3374792,78.8679114 C78.3428697,78.8852592 78.3495345,78.9025091 78.3571793,78.9190728 C81.1538077,84.9198569 86.5880917,84.3321866 93.7814662,83.4512692 C100.187817,82.6668921 98.571234,85.486945 98.2383907,87.7750956 C98.1907576,88.1027443 98.5669215,88.3196413 98.826257,88.1138195 C105.444507,82.8579143 99.0178673,80.3684505 97.1626286,80.5111536 C95.2515241,80.6581692 83.7848966,81.5401647 85.2549544,68.015515 C86.6676762,55.0190434 73.1270509,55.1354798 69.5804469,53.4759679 L69.0759875,52.8485053 Z" id="Fill-1" fill="url(#linearGradient-1)"></path>
                    <g id="眼睛" transform="translate(33.911595, 22.429678)">
                        <g id="Group-7">
                            <path d="M12.5867098,6.33351994 C12.5867098,9.78529126 9.78851067,12.5835735 6.33670979,12.5835735 C2.88490891,12.5835735 0.0867097912,9.78529126 0.0867097912,6.33351994 C0.0867097912,2.88174861 2.88490891,0.0835734588 6.33670979,0.0835734588 C9.78851067,0.0835734588 12.5867098,2.88174861 12.5867098,6.33351994" id="Fill-7" fill="#FFFFFF"></path>
                            <path d="M10.9614427,6.19537391 C10.9614427,8.16704891 9.36299128,9.76540233 7.39141429,9.76540233 C5.41973929,9.76540233 3.82128786,8.16704891 3.82128786,6.19537391 C3.82128786,4.22369891 5.41973929,2.62534549 7.39141429,2.62534549 C9.36299128,2.62534549 10.9614427,4.22369891 10.9614427,6.19537391" id="Fill-13" fill="#000000"></path>
                            <path d="M8.3443105,5.37932961 C8.3443105,5.8395864 7.97108694,6.21280996 7.51083015,6.21280996 C7.05047535,6.21280996 6.6773498,5.8395864 6.6773498,5.37932961 C6.6773498,4.91897481 7.05047535,4.54584926 7.51083015,4.54584926 C7.97108694,4.54584926 8.3443105,4.91897481 8.3443105,5.37932961" id="Fill-19" fill="#EFE8FF"></path>
                            <path d="M7.80486132,7.36423601 C7.57463491,7.36423601 7.38812114,7.17762423 7.38812114,6.94749583 C7.38812114,6.71726943 7.57463491,6.53075566 7.80486132,6.53075566 C8.03498971,6.53075566 8.22160149,6.71726943 8.22160149,6.94749583 C8.22160149,7.17762423 8.03498971,7.36423601 7.80486132,7.36423601 Z" id="Fill-21" fill="#EFE8FF"></path>
                        </g>
                        <g id="Group-9" transform="translate(20.000000, 0.000000)">
                            <path d="M13.3182887,6.33351994 C13.3182887,9.78529126 10.5200065,12.5835735 7.06823522,12.5835735 C3.61646389,12.5835735 0.818288739,9.78529126 0.818288739,6.33351994 C0.818288739,2.88174861 3.61646389,0.0835734588 7.06823522,0.0835734588 C10.5200065,0.0835734588 13.3182887,2.88174861 13.3182887,6.33351994" id="Fill-9" fill="#FFFFFF"></path>
                            <path d="M11.9149662,6.19537391 C11.9149662,8.16704891 10.3166128,9.76540233 8.34493776,9.76540233 C6.37326277,9.76540233 4.77481133,8.16704891 4.77481133,6.19537391 C4.77481133,4.22369891 6.37326277,2.62534549 8.34493776,2.62534549 C10.3166128,2.62534549 11.9149662,4.22369891 11.9149662,6.19537391" id="Fill-11" fill="#000000"></path>
                            <path d="M10.0636773,6.91331961 C9.54206606,7.05308243 9.00575321,6.74356562 8.86599039,6.22185632 C8.72622758,5.70014702 9.0358424,5.16383417 9.55745369,5.02407135 C10.079163,4.88430854 10.6154758,5.19392336 10.7552387,5.71563266 C10.8950015,6.23734196 10.5853867,6.7735568 10.0636773,6.91331961" id="Fill-15" fill="#EFE8FF"></path>
                            <path d="M10.616799,7.12096442 C10.8457512,7.14448692 11.0122709,7.34913261 10.9887484,7.57808488 C10.9653239,7.80703715 10.7606782,7.9735568 10.531628,7.95013231 C10.3026757,7.92660982 10.136156,7.72196413 10.1596785,7.49301186 C10.183103,7.26405959 10.3878467,7.09744193 10.616799,7.12096442 Z" id="Fill-17" fill="#EFE8FF"></path>
                        </g>
                        <path d="M12.3373518,16.0372341 C12.3373518,16.0372341 19.3938057,17.507292 24.245026,16.0372341 C22.1869058,18.9774478 17.0416544,20.7415368 12.3373518,16.0372341" id="Fill-23" fill="#604C8F"></path>
                    </g>
                    <g id="嘴巴" transform="translate(46.162893, 38.503381)">
                        <mask id="mask-3" fill="white">
                            <use xlink:href="#path-2"></use>
                        </mask>
                        <g id="Clip-27"></g>
                        <path d="M0.380084289,1.15645398 C0.380084289,1.15645398 7.43653827,2.62651181 12.2877585,1.15645398 C10.2296383,4.09666765 5.08438695,5.86075664 0.380084289,1.15645398" id="Fill-26" fill="#FFC4C0" mask="url(#mask-3)"></path>
                    </g>
                    <path d="M7.74593011,53.1743952 C7.75775917,53.0583397 7.81127178,52.9214895 7.90299912,52.7930511 C8.08167206,52.5429286 8.3377732,52.4195335 8.47498775,52.5175439 C8.55884962,52.577488 8.57888215,52.7063576 8.54089295,52.8546423 C8.52900458,52.9706253 8.47552891,53.1073331 8.3839263,53.235617 C8.20525336,53.4858375 7.94915221,53.6092326 7.81193767,53.5112222 C7.72807128,53.4513176 7.70802317,53.3225787 7.74593011,53.1743952 Z M68.2836813,15.0320494 C68.375517,15.2046457 68.3150446,15.4183083 68.1467608,15.5179849 C68.0036656,15.6025679 67.8220523,15.5806135 67.7039498,15.4636872 C67.0933451,14.8595511 65.1884152,11.8098598 63.3907086,9.87523277 C61.837342,8.20356758 60.3639518,7.65627757 59.875174,6.74272273 C59.7159071,6.44506518 60.00788,6.10526316 60.3235715,6.22493384 C64.1857689,7.68930707 67.5252769,13.6074684 68.2836813,15.0320494 Z M68.6016368,16.7807312 C68.6016368,16.5280604 68.8063805,16.3233167 69.0589532,16.3233167 C69.311624,16.3233167 69.5163677,16.5280604 69.5163677,16.7807312 C69.5163677,17.0333039 69.311624,17.2381456 69.0589532,17.2381456 C68.8063805,17.2381456 68.6016368,17.0333039 68.6016368,16.7807312 Z M87.2531902,44.5462413 C87.138126,44.7454964 86.7503969,44.7369695 86.3870724,44.5272273 C86.0237479,44.3174851 85.8224346,43.9859159 85.9374988,43.7866608 C86.052563,43.5874057 86.4402921,43.5959326 86.8036166,43.8056748 C87.1669411,44.015417 87.3682544,44.3469862 87.2531902,44.5462413 Z M90.6112908,45.9502107 C90.4427129,46.2422817 89.8742527,46.2298344 89.3417622,45.9222778 C88.8091738,45.6148192 88.5142605,45.1288837 88.6828384,44.8368127 C88.8514163,44.5447417 89.4198765,44.5572871 89.952367,44.8647457 C90.4849554,45.1722043 90.7799667,45.6582378 90.6112908,45.9502107 Z M92.3754778,48.5964912 C92.2068999,48.8885622 91.6384397,48.8761149 91.1059492,48.5685583 C90.5733608,48.2610997 90.2784475,47.7751642 90.4470254,47.4830932 C90.6156033,47.1910222 91.1840635,47.2035676 91.716554,47.5110262 C92.2491424,47.8184848 92.5441537,48.3045183 92.3754778,48.5964912 Z M92.6853965,46.863697 C92.6011075,47.0097324 92.3168774,47.0034598 92.0505832,46.8496815 C91.7843869,46.6960012 91.6368813,46.4530334 91.7211702,46.3069979 C91.8053612,46.1609625 92.0896893,46.1672351 92.3559835,46.3209154 C92.6221798,46.4746937 92.7696854,46.7176615 92.6853965,46.863697 Z M87.8828874,46.373645 C87.7985985,46.5196805 87.5143683,46.5134078 87.2480741,46.3596295 C86.9818779,46.2059492 86.8343722,45.9629815 86.9186612,45.816946 C87.0028521,45.6709105 87.2871802,45.6771832 87.5534745,45.8308635 C87.8196707,45.9846418 87.9671763,46.2276095 87.8828874,46.373645 Z M80.5194747,60.018769 C80.3333529,60.1538273 79.9825738,59.9880917 79.7363717,59.6484857 C79.4899735,59.3088797 79.4413604,58.924091 79.6274821,58.7890326 C79.8137999,58.6539743 80.164383,58.8198079 80.4107811,59.1593159 C80.6569832,59.4989219 80.7056944,59.8837107 80.5194747,60.018769 Z M83.0141429,62.6692639 C82.741184,62.8673429 82.2272175,62.6242772 81.8661472,62.1264824 C81.5051749,61.6286876 81.4337254,61.0646379 81.7066843,60.8666569 C81.9796432,60.6686759 82.4936097,60.9116436 82.85468,61.4094384 C83.2157503,61.9073312 83.2871018,62.471283 83.0141429,62.6692639 Z M83.5469764,65.8048319 C83.2740174,66.0028129 82.760051,65.7597471 82.3988827,65.2619524 C82.0379104,64.7642556 81.9664608,64.2002058 82.2394198,64.0021268 C82.5123787,63.8041458 83.0263452,64.0471136 83.3875135,64.5450064 C83.7485837,65.0428011 83.8199353,65.6067529 83.5469764,65.8048319 Z M84.5359796,64.3485543 C84.3994511,64.4476429 84.1424679,64.32611 83.9620308,64.0771636 C83.7814956,63.8282172 83.7457218,63.5462413 83.8822503,63.4473488 C84.0187788,63.3482603 84.275762,63.4697932 84.4562972,63.7186416 C84.6367343,63.967588 84.6725081,64.2495639 84.5359796,64.3485543 Z M80.3499657,61.9441341 C80.2134372,62.0432226 79.956454,61.9216897 79.7760169,61.6727433 C79.5954817,61.4237969 79.5597079,61.141821 79.6962364,61.0429286 C79.8327649,60.94384 80.0897481,61.0653729 80.2702833,61.3142213 C80.4507204,61.5631677 80.4864942,61.8451436 80.3499657,61.9441341 Z M59.0907086,92.5749681 C58.972116,92.772165 58.584583,92.7565814 58.2251789,92.5402725 C57.8656768,92.3237675 57.6705381,91.988768 57.7891306,91.7915711 C57.9078212,91.5944722 58.2953543,91.6100559 58.6547584,91.8263648 C59.0141625,92.0426737 59.2093992,92.3778693 59.0907086,92.5749681 Z M62.4227678,94.0399588 C62.2488974,94.3288935 61.6808292,94.306057 61.1539253,93.9888954 C60.6271195,93.6717338 60.3409291,93.1804077 60.5147996,92.8915711 C60.688768,92.6026365 61.2568362,92.6254729 61.7836421,92.9426345 C62.3104479,93.2596981 62.5966382,93.7510242 62.4227678,94.0399588 Z M64.1384299,96.7179163 C63.9645594,97.0068509 63.3964912,96.9840145 62.8695874,96.6668529 C62.3427815,96.3497893 62.0565912,95.8584632 62.2304616,95.5695286 C62.4044301,95.2805939 62.9724983,95.3034304 63.4993041,95.620592 C64.026208,95.9377536 64.3123003,96.4290797 64.1384299,96.7179163 Z M64.4798393,94.9910615 C64.392806,95.1355288 64.1088699,95.1240616 63.845418,94.9654807 C63.5819661,94.8068999 63.4389689,94.5612859 63.5259041,94.4169166 C63.6128394,94.2723513 63.8968735,94.2838185 64.1602274,94.4423013 C64.4237773,94.6009801 64.5667745,94.8464961 64.4798393,94.9910615 Z M59.6870038,94.4135254 C59.6000686,94.5580908 59.3160345,94.5465255 59.0525826,94.3880427 C58.7892287,94.2294619 58.6461335,93.9838479 58.7331667,93.8393806 C58.8200039,93.6949133 59.104136,93.7062825 59.36749,93.8648633 C59.6309419,94.0235421 59.774037,94.2690581 59.6870038,94.4135254 Z M24.3700872,71.0491522 C24.1444673,71.0938449 23.8954229,70.7963834 23.8139763,70.3849358 C23.7325296,69.9732922 23.849456,69.603597 24.075174,69.5589042 C24.3007939,69.5142115 24.5497403,69.811575 24.6312849,70.2231207 C24.7127315,70.6346663 24.5958052,71.0044595 24.3700872,71.0491522 Z M24.616701,74.6806037 C24.2859159,74.7460747 23.9209252,74.3102225 23.8015486,73.7068705 C23.6821719,73.1037146 23.8534941,72.5616191 24.1842791,72.4961482 C24.5151622,72.4306773 24.8801529,72.8665295 24.9994315,73.4697834 C25.1189062,74.0730373 24.947486,74.6151328 24.616701,74.6806037 Z M26.5530236,77.2036068 C26.2222386,77.2690777 25.8572479,76.8332255 25.7378712,76.2298736 C25.6184946,75.6267176 25.7899147,75.0846222 26.1206998,75.0191512 C26.4514849,74.9536803 26.8164755,75.3896305 26.9358522,75.9927864 C27.0552289,76.5961384 26.8838087,77.1381358 26.5530236,77.2036068 Z M24.81281,76.9383907 C24.6474664,76.9711261 24.4649711,76.753151 24.4051847,76.4515731 C24.3454964,76.1499951 24.4311575,75.8788984 24.596599,75.8461629 C24.7620406,75.8134274 24.9445359,76.0314025 25.0042242,76.3329805 C25.0639126,76.6345585 24.9781535,76.9056552 24.81281,76.9383907 Z M25.8969617,72.2342742 C25.7316182,72.2670097 25.5491228,72.0490346 25.4893365,71.7474566 C25.4296481,71.4457807 25.5154072,71.1747819 25.6807508,71.1419484 C25.8461923,71.109213 26.0286876,71.3272861 26.088376,71.6288641 C26.1480643,71.930442 26.0623052,72.2015388 25.8969617,72.2342742 Z M7.6282564,51.5871018 C7.44105655,51.4534157 7.48692541,51.0683328 7.73077526,50.7269627 C7.9745271,50.3854945 8.32403215,50.2171126 8.51113398,50.3508968 C8.69833382,50.484583 8.65256297,50.8697638 8.40871312,51.211134 C8.16496129,51.5524062 7.81545624,51.720788 7.6282564,51.5871018 Z M5.15311183,54.2558757 C4.87868274,54.0598549 4.94601588,53.4953151 5.30336176,52.9949721 C5.66070764,52.494433 6.17290993,52.2477409 6.44733902,52.4437616 C6.72176811,52.6396844 6.65453298,53.2043223 6.29708909,53.7046653 C5.93974321,54.2050083 5.42754092,54.4518965 5.15311183,54.2558757 Z M4.64335,57.3951779 C4.36892091,57.1991571 4.43615603,56.6346173 4.79359992,56.1342742 C5.1509458,55.6338332 5.66314809,55.387043 5.93757718,55.5830638 C6.21200627,55.7789866 6.14467314,56.3436244 5.78732726,56.8439675 C5.42998138,57.3443105 4.91777908,57.5911987 4.64335,57.3951779 Z M3.64362442,55.9462707 C3.50640988,55.8482603 3.54002744,55.5659904 3.71879839,55.3157699 C3.89737332,55.0656474 4.15357248,54.9422523 4.29078702,55.0401647 C4.42790356,55.138175 4.39428599,55.420445 4.21561305,55.6706655 C4.03694012,55.920886 3.78083897,56.0442811 3.64362442,55.9462707 Z M11.8125061,49.064481 C11.6253063,48.9307949 11.6711751,48.545614 11.914927,48.2042438 C12.1587768,47.8628737 12.5081839,47.6944918 12.6953837,47.828178 C12.8825836,47.9618642 12.8367147,48.347045 12.5928648,48.6884152 C12.349113,49.0297854 11.999706,49.1981672 11.8125061,49.064481 Z M9.33736156,51.7331569 C9.06293247,51.5372341 9.1301676,50.9725963 9.48761149,50.4722533 C9.84495737,49.9718122 10.3571597,49.7250221 10.6315887,49.9210428 C10.9060178,50.1170636 10.8386847,50.6816034 10.4813388,51.1819465 C10.1239929,51.6823875 9.61179065,51.9291777 9.33736156,51.7331569 Z M8.82755072,54.8724591 C8.55312163,54.6765363 8.62045477,54.1119965 8.97780065,53.6115554 C9.33514653,53.1111144 9.84734882,52.8644222 10.1217779,53.060345 C10.396207,53.2563658 10.3289719,53.8209056 9.97152798,54.3212487 C9.6141821,54.8216897 9.10197981,55.0684799 8.82755072,54.8724591 Z M11.9961384,50.9886014 C11.8589238,50.890591 11.8925414,50.6083211 12.0713124,50.3581006 C12.2499853,50.10788 12.5060864,49.984485 12.643301,50.0824953 C12.7804175,50.1804077 12.746898,50.4627757 12.568127,50.7128982 C12.3894541,50.9631187 12.1333529,51.0865138 11.9961384,50.9886014 Z" id="吸盘" fill="#5E4B91"></path>
                </g>
            </g>
        </g>
    </g>
</svg>